# xmcd
#
# Track frame offsets: 
#        150
#        21065
#        41755
#        58730
#        71841
#        85997
#        99337
#        119620
#        131137
#        151144
#        172224
#        188343
#
# Disc length: 2761 seconds
#
# Revision: 0
# Processed by: cddbd v1.5.2PL0 Copyright (c) Steve Scherf et al.
# Submitted via: ExactAudioCopy v0.99pb3
#
DISCID=a40ac70c
DTITLE=Danko Rick - Live at Uncle Willys
DYEAR=2011
DGENRE=Country
TTITLE0=Mystery Train
TTITLE1=Twilights the loneliest Time of Day
TTITLE2=Stage Fright
TTITLE3=Bartender Blues
TTITLE4=Wish you were here with me
TTITLE5=Caledonia Mission
TTITLE6=The Weight
TTITLE7=Blaze of Glory
TTITLE8=Makes no Difference
TTITLE9=Sick and Tired
TTITLE10=Honest I do
TTITLE11=The Shape Im In
EXTD=
EXTT0=
EXTT1=
EXTT2=
EXTT3=
EXTT4=
EXTT5=
EXTT6=
EXTT7=
EXTT8=
EXTT9=
EXTT10=
EXTT11=
PLAYORDER=
